# xmcd
#
# Track frame offsets:
# 150
# 16369
# 33350
# 52484
# 71389
# 87124
# 102859
# 124044
# 144747
# 161260
# 178117
# 196847
# 212241
# 230194
# 249918
# 270455
# 291531
# 309493
# 330298
#
# Disc length: 4669 seconds
#
#
# Revision: 0
# Processed by: cddbd v1.5.2PL0 Copyright (c) Steve Scherf et al.
# Submitted via: FreeRIP 2.945 
#
DISCID=13123b13
DTITLE=Whitney Houston - Just WHITNEY
DYEAR=2001
DGENRE=Pop
TTITLE0=Whatchulcokinat
TTITLE1=Tell Me No
TTITLE2=One Of Those Days
TTITLE3=Things You Say
TTITLE4=My Love (feat. Bobby Brown)
TTITLE5=Love That Man
TTITLE6=On My Own
TTITLE7=Dear John Letter
TTITLE8=Unashamed
TTITLE9=You Light Up My Life
TTITLE10=Whatchulcokinat (P. Diddy Remix)
TTITLE11=Exhale (Shoop Shoop)
TTITLE12=I Learned From The Best
TTITLE13=My Love Is Your Love
TTITLE14=It's Not Right But It's O.K.
TTITLE15=If I Told You That (feat. George Michael)
TTITLE16=Could I Have This Kiss Forever (feat. Enrique Iglesias)
TTITLE17=When You Believe (Duet with Mariah Carey)
TTITLE18=I Will Always Love You
EXTD=Y2002\n
EXTT0=
EXTT1=
EXTT2=
EXTT3=
EXTT4=
EXTT5=
EXTT6=
EXTT7=
EXTT8=
EXTT9=
EXTT10=
EXTT11=
EXTT12=
EXTT13=
EXTT14=
EXTT15=
EXTT16=
EXTT17=
EXTT18=
PLAYORDER=
